<?xml version="1.0"?>
<svg width="710" height="710" xmlns="http://www.w3.org/2000/svg" xmlns:svg="http://www.w3.org/2000/svg" version="1.1" xml:space="preserve">
 <metadata id="metadata8">image/svg+xml</metadata>
 <g class="layer">
  <title>Layer 1</title>
  <g id="svg_1">
   <path d="m354.52,705.65c194.07,0 351.39,-157.32 351.39,-351.39c0,-194.05 -157.32,-351.37 -351.39,-351.37c-194.05,0 -351.39,157.32 -351.39,351.37c0,194.07 157.33,351.39 351.39,351.39" fill="#ffffff" id="path26" stroke="#3b4a73" stroke-miterlimit="10" stroke-width="8"/>
   <path d="m102.92,383.83c11.17,140.57 143.76,223.47 249.24,223.47c140.63,0 254.63,-114 254.63,-254.63c0,-8.73 1.79,-16.24 0.93,-24.75c0,0 -217.25,76.67 -238.03,41.52c-20.07,-33.95 17.99,-71.99 120.11,-62.04c30.05,2.93 -95.25,-111.56 -222.35,-56.16c-56.67,24.69 -164.53,132.59 -164.53,132.59" fill="#0091c9" fill-rule="nonzero" id="path12"/>
   <path d="m354.52,608.89c140.63,0 254.63,-114 254.63,-254.63c0,-140.61 -114,-254.63 -254.63,-254.63c-140.63,0 -254.63,114.01 -254.63,254.63c0,140.64 114,254.63 254.63,254.63" fill="none" id="path14" stroke="#3b4a73" stroke-miterlimit="10" stroke-width="8"/>
   <path d="m71.51,226.03c-10.13,-1.4 -15.13,6.45 -17.31,12.04c-4.08,10.55 -0.31,21.8 13.64,27.2c12.47,4.83 23.93,3.67 29.52,-10.76c1.99,-5.11 3.2,-14.81 -8.08,-22.25l2.95,-7.63c18.73,10.99 12.71,29.17 11,33.55c-5.11,13.21 -17.96,23.17 -38.31,15.29c-16.31,-6.32 -23.63,-20.89 -17.05,-37.85c5.8,-15 17.29,-19.51 26.59,-17.21l-2.95,7.63l0,-0.01z" fill="#3b4a73" fill-rule="nonzero" id="path16"/>
   <path d="m197.77,86.63c-7.51,-6.96 -16.11,-3.39 -21.08,-0.04c-9.39,6.29 -12.75,17.68 -4.41,30.09c7.45,11.09 17.51,16.73 30.36,8.11c4.55,-3.05 11.09,-10.31 6.12,-22.87l6.8,-4.56c9.04,19.73 -6.31,31.19 -10.21,33.8c-11.77,7.89 -28,8.68 -40.16,-9.44c-9.73,-14.51 -7.37,-30.67 7.72,-40.79c13.36,-8.96 25.36,-6.07 31.65,1.15l-6.79,4.55z" fill="#3b4a73" fill-rule="nonzero" id="path18"/>
   <path d="m370.63,41.85c-0.31,-8.77 -8.27,-11.65 -15.31,-11.76c-5.31,-0.07 -14.28,1.15 -14.4,9.76c-0.08,4.83 3.64,6.47 7.28,7.31l17.77,3.97c8.05,1.84 14.08,6.36 13.95,15.37c-0.19,13.44 -13.99,16.96 -24.67,16.8c-11.57,-0.17 -16.04,-3.39 -18.8,-5.72c-5.24,-4.43 -6.21,-9.17 -6.13,-14.48l7.91,0.12c-0.15,10.27 9.03,13.4 17.03,13.52c6.08,0.08 16.37,-1.19 16.48,-9.33c0.09,-5.92 -2.93,-7.87 -13.16,-10.23l-12.73,-2.87c-4.07,-0.93 -13.25,-3.67 -13.11,-13.56c0.12,-8.85 6.59,-17.45 21.72,-17.24c21.83,0.32 23.83,12.2 24.09,18.45l-7.92,-0.12l0,0.01z" fill="#3b4a73" fill-rule="nonzero" id="path20"/>
   <path d="m525.59,73.81l22.51,15.76c9.55,6.69 10.69,15.49 6.25,21.84c-2.13,3.05 -6.33,6.47 -13.63,4.93c2.48,3.57 6.89,9.85 1.32,17.81c-5.21,7.45 -15.67,9.49 -26.99,1.56l-22.01,-15.41l32.55,-46.49zm-6.87,24.53l12.47,8.72c6.61,4.64 11.95,5.67 15.95,-0.03c3.03,-4.35 1.84,-8.85 -5.87,-14.24l-12.53,-8.77l-10.01,14.32l-0.01,0zm-15.01,21.43l14.75,10.32c7.2,5.04 13.13,4.28 16.76,-0.89c4.59,-6.55 -0.84,-12.28 -6.48,-16.23l-13.6,-9.52l-11.43,16.32z" fill="#3b4a73" fill-rule="nonzero" id="path22"/>
   <path d="m652.53,212.47l18.55,47.2l-6.33,2.48l-7.73,-19.67l-46.48,18.28l-3.09,-7.85l46.49,-18.28l-7.73,-19.67l6.33,-2.49l-0.01,0z" fill="#3b4a73" fill-rule="nonzero" id="path24"/>
   <path d="m337.35,535.37c176.12,-180.31 156.35,-303.12 151.56,-307.31l-1.8,-5.59l25.56,19.97l12.17,-3.6l2.45,17.57l15.72,-4.4l-5.59,18.37l17.08,0.2l-7.76,21.19l18.83,-0.83l-9.88,17.97l16.88,6.2l-12.99,14.77l3.4,16.37l16.87,-5.92c0,0 -0.45,27.16 -21.88,58.17l-7.17,27.39l24.97,17.01c0,0 -9.4,13.64 -52.72,32.73c0,0 -75.73,83.12 -177.32,62.71l-8.39,-3l0.01,0.03z" fill="#b3def0" fill-rule="nonzero" id="path28"/>
   <path d="m337.35,535.37c176.12,-180.31 156.35,-303.12 151.56,-307.31l-1.8,-5.59l25.56,19.97l12.17,-3.6l2.45,17.57l15.72,-4.4l-5.59,18.37l17.08,0.2l-7.76,21.19l18.83,-0.83l-9.88,17.97l16.88,6.2l-12.99,14.77l3.4,16.37l16.87,-5.92c0,0 -0.45,27.16 -21.88,58.17l-7.17,27.39l24.97,17.01c0,0 -9.4,13.64 -52.72,32.73c0,0 -75.73,83.12 -177.32,62.71l-8.39,-3l0.01,0.03z" fill="none" id="path30" stroke="#3b4a73" stroke-miterlimit="10" stroke-width="4"/>
   <path d="m512.88,345.53l-44.95,45.48l10.79,51.52c31.75,-45.53 34.16,-97 34.16,-97" fill="#a3d6f5" fill-rule="nonzero" id="path32"/>
   <path d="m512.88,345.53l-44.95,45.48l10.79,51.52c31.75,-45.53 34.16,-97 34.16,-97" fill="none" id="path34" stroke="#3b4a73" stroke-miterlimit="10" stroke-width="0.25"/>
   <path d="m417.63,513.85c8.72,0 15.81,-7.08 15.81,-15.81c0,-8.73 -7.09,-15.81 -15.81,-15.81c-8.73,0 -15.83,7.08 -15.83,15.81c0,8.73 7.09,15.81 15.83,15.81" fill="#ffffff" fill-rule="nonzero" id="path36"/>
   <path d="m417.63,513.85c8.72,0 15.81,-7.08 15.81,-15.81c0,-8.73 -7.09,-15.81 -15.81,-15.81c-8.73,0 -15.83,7.08 -15.83,15.81c0,8.73 7.09,15.81 15.83,15.81" fill="none" id="path38" stroke="#3b4a73" stroke-miterlimit="10" stroke-width="0.25"/>
   <path d="m417.63,505.95c4.36,0 7.91,-3.55 7.91,-7.91c0,-4.37 -3.55,-7.91 -7.91,-7.91c-4.37,0 -7.92,3.53 -7.92,7.91c0,4.36 3.55,7.91 7.92,7.91" fill="#d9261c" fill-rule="nonzero" id="path40"/>
   <path d="m417.63,505.95c4.36,0 7.91,-3.55 7.91,-7.91c0,-4.37 -3.55,-7.91 -7.91,-7.91c-4.37,0 -7.92,3.53 -7.92,7.91c0,4.36 3.55,7.91 7.92,7.91" fill="none" id="path42" stroke="#3b4a73" stroke-miterlimit="10" stroke-width="0.13"/>
   <path d="m515.28,344.35l-44.95,45.47l10.79,51.52c31.75,-37.15 34.16,-96.99 34.16,-96.99" fill="#a3d6f5" fill-rule="nonzero" id="path44"/>
   <path d="m515.28,344.35l-44.95,45.47l10.79,51.52c31.75,-37.15 34.16,-96.99 34.16,-96.99" fill="none" id="path46" stroke="#3b4a73" stroke-miterlimit="10" stroke-width="0.5"/>
   <path d="m384.16,159.31c-176.12,180.31 -156.35,303.11 -151.55,307.31l1.79,5.59l-25.56,-19.96l-12.17,3.59l-2.45,-17.56l-15.72,4.39l5.59,-18.37l-17.07,-0.2l7.76,-21.2l-18.84,0.83l9.88,-17.97l-16.87,-6.19l12.97,-14.77l-3.39,-16.37l-16.88,5.93c0,0 0.45,-27.16 21.89,-58.19l7.16,-27.37l-24.96,-17.01c0,0 9.39,-13.65 52.71,-32.75c0,0 75.75,-83.11 177.32,-62.71l8.39,3l0,-0.02z" fill="#b3def0" fill-rule="nonzero" id="path48"/>
   <path d="m384.16,159.31c-176.12,180.31 -156.35,303.11 -151.55,307.31l1.79,5.59l-25.56,-19.96l-12.17,3.59l-2.45,-17.56l-15.72,4.39l5.59,-18.37l-17.07,-0.2l7.76,-21.2l-18.84,0.83l9.88,-17.97l-16.87,-6.19l12.97,-14.77l-3.39,-16.37l-16.88,5.93c0,0 0.45,-27.16 21.89,-58.19l7.16,-27.37l-24.96,-17.01c0,0 9.39,-13.65 52.71,-32.75c0,0 75.75,-83.11 177.32,-62.71l8.39,3l0,-0.02z" fill="none" id="path50" stroke="#3b4a73" stroke-miterlimit="10" stroke-width="4"/>
   <path d="m208.63,349.13l44.95,-45.45l-10.79,-51.52c-31.75,45.52 -34.16,96.97 -34.16,96.97" fill="#80c7e3" fill-rule="nonzero" id="path52"/>
   <path d="m208.63,349.13l44.95,-45.45l-10.79,-51.52c-31.75,45.52 -34.16,96.97 -34.16,96.97" fill="none" id="path54" stroke="#3b4a73" stroke-miterlimit="10" stroke-width="0.25"/>
   <path d="m303.89,180.83c-8.73,0 -15.81,7.08 -15.81,15.81c0,8.73 7.08,15.81 15.81,15.81c8.73,0 15.81,-7.08 15.81,-15.81c0,-8.73 -7.08,-15.81 -15.81,-15.81" fill="#ffffff" fill-rule="nonzero" id="path56"/>
   <path d="m303.89,180.83c-8.73,0 -15.81,7.08 -15.81,15.81c0,8.73 7.08,15.81 15.81,15.81c8.73,0 15.81,-7.08 15.81,-15.81c0,-8.73 -7.08,-15.81 -15.81,-15.81" fill="none" id="path58" stroke="#3b4a73" stroke-miterlimit="10" stroke-width="0.25"/>
   <path d="m303.89,188.73c-4.36,0 -7.91,3.55 -7.91,7.91c0,4.37 3.55,7.91 7.91,7.91c4.36,0 7.91,-3.53 7.91,-7.91c0,-4.36 -3.55,-7.91 -7.91,-7.91" fill="#d9261c" fill-rule="nonzero" id="path60"/>
   <path d="m303.89,188.73c-4.36,0 -7.91,3.55 -7.91,7.91c0,4.37 3.55,7.91 7.91,7.91c4.36,0 7.91,-3.53 7.91,-7.91c0,-4.36 -3.55,-7.91 -7.91,-7.91" fill="none" id="path62" stroke="#3b4a73" stroke-miterlimit="10" stroke-width="0.13"/>
   <path d="m206.23,350.33l44.95,-45.47l-10.79,-51.51c-31.75,37.13 -34.16,96.97 -34.16,96.97" fill="#a3d6f5" fill-rule="nonzero" id="path64"/>
   <path d="m206.23,350.33l44.95,-45.47l-10.79,-51.51c-31.75,37.13 -34.16,96.97 -34.16,96.97" fill="none" id="path66" stroke="#3b4a73" stroke-miterlimit="10" stroke-width="0.5"/>
   <path d="m343.57,634.65c-0.23,-0.13 -0.17,-0.49 -0.28,-0.81c-0.67,0.05 -23.87,3.23 -26.52,3.52c-0.15,-0.35 -0.88,-8.04 -0.8,-8.39c1.75,0.13 2.8,0.35 4.59,0.27c3.69,-0.2 24.28,-2.01 27.07,-2.44c1.48,-0.21 3.03,-1.79 4.33,-1.88c2.25,-0.2 2.63,2.27 3.51,3.52c0.61,0.87 1.27,1.69 1.89,2.69c-0.89,1.09 -23,20.53 -24.08,21.92c0.28,-0.01 3.37,-0.65 4.07,-0.81c3.08,-0.8 9.72,-1.64 13.8,-1.08c4.93,0.67 11.32,3.56 13.8,6.76c2.76,3.59 4.88,9.85 3.24,16.23c-0.23,0.85 -1.35,3.55 -1.63,4.07c-0.87,1.56 -5.6,8.76 -14.33,10.83c-5.64,1.33 -21.99,4.15 -24.89,3.24c-1.44,-0.44 -3.63,-7.96 -2.44,-8.39c1.08,-0.4 3.39,0.24 4.07,0.28c1.97,0.05 4.04,0.01 5.95,0c11,-0.19 21.56,-3.47 25.17,-11.11c1.15,-2.45 1.51,-6.72 0,-9.19c-3.69,-6.05 -16.32,-6.88 -25.44,-5.15c-10.73,2.04 -19.31,11.24 -20.03,11.91c-0.64,0.57 -2.23,3.36 -2.97,3.51c-0.71,0.15 -0.36,-0.41 -1.08,-0.27c-0.6,-0.88 -3.84,-4.49 -4.05,-5.13c-0.13,-0.36 0.15,-0.77 0,-1.08l37.07,-33.01l-0.02,-0.01z" fill="#3b4a73" fill-rule="nonzero" id="path68"/>
   <path d="m343.57,634.65c-0.23,-0.13 -0.17,-0.49 -0.28,-0.81c-0.67,0.05 -23.87,3.23 -26.52,3.52c-0.15,-0.35 -0.88,-8.04 -0.8,-8.39c1.75,0.13 2.8,0.35 4.59,0.27c3.69,-0.2 24.28,-2.01 27.07,-2.44c1.48,-0.21 3.03,-1.79 4.33,-1.88c2.25,-0.2 2.63,2.27 3.51,3.52c0.61,0.87 1.27,1.69 1.89,2.69c-0.89,1.09 -23,20.53 -24.08,21.92c0.28,-0.01 3.37,-0.65 4.07,-0.81c3.08,-0.8 9.72,-1.64 13.8,-1.08c4.93,0.67 11.32,3.56 13.8,6.76c2.76,3.59 4.88,9.85 3.24,16.23c-0.23,0.85 -1.35,3.55 -1.63,4.07c-0.87,1.56 -5.6,8.76 -14.33,10.83c-5.64,1.33 -21.99,4.15 -24.89,3.24c-1.44,-0.44 -3.63,-7.96 -2.44,-8.39c1.08,-0.4 3.39,0.24 4.07,0.28c1.97,0.05 4.04,0.01 5.95,0c11,-0.19 21.56,-3.47 25.17,-11.11c1.15,-2.45 1.51,-6.72 0,-9.19c-3.69,-6.05 -16.32,-6.88 -25.44,-5.15c-10.73,2.04 -19.31,11.24 -20.03,11.91c-0.64,0.57 -2.23,3.36 -2.97,3.51c-0.71,0.15 -0.36,-0.41 -1.08,-0.27c-0.6,-0.88 -3.84,-4.49 -4.05,-5.13c-0.13,-0.36 0.15,-0.77 0,-1.08l37.07,-33.01l-0.02,-0.01z" fill="none" id="path70" stroke="#ffffff" stroke-miterlimit="10" stroke-width="0.05"/>
   <path d="m398.45,636.88c0.17,-0.12 0.39,-0.71 0.56,-0.81l-0.56,0.81z" fill="#3b4a73" fill-rule="nonzero" id="path72"/>
   <path d="m398.45,636.88c0.17,-0.12 0.39,-0.71 0.56,-0.81l-0.56,0.81z" fill="none" id="path74" stroke="#ffffff" stroke-miterlimit="10" stroke-width="0.05"/>
   <path d="m287.41,609.28c0.49,0.31 0.6,-0.03 1.08,0.27c1.19,0.75 7.69,8.85 7.57,9.21c-0.15,0.44 -3.63,2.87 -4.6,2.69c-1.32,-0.24 -6.41,-8.08 -7.03,-8.39c-0.09,0 -0.19,0 -0.28,0c-0.15,-0.43 0.15,-0.93 0,-1.35c1.09,-0.79 2.13,-1.67 3.25,-2.44" fill="#3b4a73" fill-rule="nonzero" id="path76"/>
   <path d="m287.41,609.28c0.49,0.31 0.6,-0.03 1.08,0.27c1.19,0.75 7.69,8.85 7.57,9.21c-0.15,0.44 -3.63,2.87 -4.6,2.69c-1.32,-0.24 -6.41,-8.08 -7.03,-8.39c-0.09,0 -0.19,0 -0.28,0c-0.15,-0.43 0.15,-0.93 0,-1.35c1.09,-0.79 2.13,-1.67 3.25,-2.44" fill="none" id="path78" stroke="#ffffff" stroke-miterlimit="10" stroke-width="0.05"/>
   <path d="m279.03,615.77c0.32,-0.04 0.76,-0.11 1.08,0c1.04,0.35 3.4,4.36 4.33,5.41c0.68,0.77 2.65,2.85 2.97,3.52c-0.93,1.21 -2.11,2.52 -3.25,3.52c-0.64,-0.37 -2.44,-2.52 -2.97,-3.25c-1.45,-2 -3.84,-3.75 -5.41,-5.68c0.68,-1.45 0.51,-1.27 1.63,-2.17c0.44,-0.36 0.96,-1.28 1.63,-1.35" fill="#3b4a73" fill-rule="nonzero" id="path80"/>
   <path d="m279.03,615.77c0.32,-0.04 0.76,-0.11 1.08,0c1.04,0.35 3.4,4.36 4.33,5.41c0.68,0.77 2.65,2.85 2.97,3.52c-0.93,1.21 -2.11,2.52 -3.25,3.52c-0.64,-0.37 -2.44,-2.52 -2.97,-3.25c-1.45,-2 -3.84,-3.75 -5.41,-5.68c0.68,-1.45 0.51,-1.27 1.63,-2.17c0.44,-0.36 0.96,-1.28 1.63,-1.35" fill="none" id="path82" stroke="#ffffff" stroke-miterlimit="10" stroke-width="0.05"/>
   <path d="m269.01,617.4c1.77,1.39 4.6,5.2 4.39,5.31c0,0 -13.81,8.31 -33.33,22.03c-0.83,0.57 -0.41,1.01 -0.81,2.15c1.09,0.77 19.35,16.68 37.33,30.85c0.45,0.35 -5.15,5.99 -5.68,5.41c-13.43,-14.79 -37.37,-31.61 -38.41,-32.75c0,0 -0.85,-1.08 -1.08,-1.35c-0.71,-0.84 -1.55,-2.68 -1.09,-4.6l1.91,-2.15c32.67,-21.49 37.12,-25.15 36.79,-24.91" fill="#3b4a73" fill-rule="nonzero" id="path84"/>
   <path d="m269.01,617.4c1.77,1.39 4.6,5.2 4.39,5.31c0,0 -13.81,8.31 -33.33,22.03c-0.83,0.57 -0.41,1.01 -0.81,2.15c1.09,0.77 19.35,16.68 37.33,30.85c0.45,0.35 -5.15,5.99 -5.68,5.41c-13.43,-14.79 -37.37,-31.61 -38.41,-32.75c0,0 -0.85,-1.08 -1.08,-1.35c-0.71,-0.84 -1.55,-2.68 -1.09,-4.6l1.91,-2.15c32.67,-21.49 37.12,-25.15 36.79,-24.91" fill="none" id="path86" stroke="#ffffff" stroke-miterlimit="10" stroke-width="0.05"/>
   <path d="m146.4,543.92c-0.28,-0.99 3.12,-17.05 2.21,-16.95c-1.51,0.17 -6.83,-0.56 -6.87,-0.25c-0.56,6.07 -0.56,11.71 -2.05,15.12c0,0 -15.13,-2.91 -19.21,-3.51c0.72,-2.73 10.73,-22.72 10.28,-24.89c-0.23,-1.07 -3.2,-2.56 -4.05,-3.24c-0.73,-0.59 -1.15,-1.57 -2.44,-1.64c-2.01,-0.08 -4.55,1.55 -6.49,1.91c-3.52,0.64 -12.12,1.53 -12.71,1.61c-1.81,0.24 -4.64,-0.59 -5.96,-0.27c-0.24,0.05 -0.45,0.65 -0.81,0.81c0,1.97 0,3.97 0,5.96c0.41,0.19 0.51,0.69 0.81,0.8c2.28,0.77 21.24,-2.23 21.65,-2.16c-1.13,3.03 -7.05,18.52 -8.6,20.69c-4.04,-0.45 -13.37,2.51 -17.75,5.92c-3.4,2.65 -8.03,8.09 -6.67,14.77c1.16,5.77 6.81,6.47 8.77,6.23c4.31,-0.53 6.96,-1.75 12.97,-8.45c4.79,-5.36 6.93,-10.88 7.75,-11.29c2.49,-1.33 20.95,2.97 20.71,3.76c-2.12,6.76 -18.2,20.6 -21.84,21.83c0.55,1.8 3.41,6.17 3.83,6.07c1.35,-0.36 17.87,-11.83 24.49,-25.36c0.09,-0.2 12.95,5.17 13.25,5.07c1.16,-0.45 2.04,-5.32 2.68,-6.33c-0.29,-0.2 -13.96,-6.2 -13.96,-6.2l0.01,-0.01zm-52,14.37c-3.77,-2.28 2.6,-9.63 4.23,-10.69c5.36,-3.48 11.89,-3.64 12.05,-4.03c-9.23,20.49 -15.75,15.04 -16.28,14.72" fill="#3b4a73" fill-rule="nonzero" id="path88"/>
   <path d="m146.4,543.92c-0.28,-0.99 3.12,-17.05 2.21,-16.95c-1.51,0.17 -6.83,-0.56 -6.87,-0.25c-0.56,6.07 -0.56,11.71 -2.05,15.12c0,0 -15.13,-2.91 -19.21,-3.51c0.72,-2.73 10.73,-22.72 10.28,-24.89c-0.23,-1.07 -3.2,-2.56 -4.05,-3.24c-0.73,-0.59 -1.15,-1.57 -2.44,-1.64c-2.01,-0.08 -4.55,1.55 -6.49,1.91c-3.52,0.64 -12.12,1.53 -12.71,1.61c-1.81,0.24 -4.64,-0.59 -5.96,-0.27c-0.24,0.05 -0.45,0.65 -0.81,0.81c0,1.97 0,3.97 0,5.96c0.41,0.19 0.51,0.69 0.81,0.8c2.28,0.77 21.24,-2.23 21.65,-2.16c-1.13,3.03 -7.05,18.52 -8.6,20.69c-4.04,-0.45 -13.37,2.51 -17.75,5.92c-3.4,2.65 -8.03,8.09 -6.67,14.77c1.16,5.77 6.81,6.47 8.77,6.23c4.31,-0.53 6.96,-1.75 12.97,-8.45c4.79,-5.36 6.93,-10.88 7.75,-11.29c2.49,-1.33 20.95,2.97 20.71,3.76c-2.12,6.76 -18.2,20.6 -21.84,21.83c0.55,1.8 3.41,6.17 3.83,6.07c1.35,-0.36 17.87,-11.83 24.49,-25.36c0.09,-0.2 12.95,5.17 13.25,5.07c1.16,-0.45 2.04,-5.32 2.68,-6.33c-0.29,-0.2 -13.96,-6.2 -13.96,-6.2m-52,14.37c-3.77,-2.28 2.6,-9.63 4.23,-10.69c5.36,-3.48 11.89,-3.64 12.05,-4.03c-9.23,20.49 -15.75,15.04 -16.28,14.72" fill="none" id="path90" stroke="#ffffff" stroke-miterlimit="10" stroke-width="0.05"/>
   <path d="m86.95,381.31c-2.21,-0.93 -4.95,-2.4 -7.31,-3.24c-1.16,-0.41 -1.84,-0.68 -2.71,-1.09c0.12,-0.07 -0.32,-0.99 -0.27,-1.35c0,0 1.79,-9.61 2.16,-13.52c0.01,-0.13 0.45,-1.36 0.27,-1.91c-0.05,-0.16 -0.45,-0.2 -0.53,-0.53c-2.52,-0.35 -4.97,-0.47 -7.31,-0.81c-0.08,0.35 -0.49,0.37 -0.55,0.55c-0.17,0.48 -0.51,3.49 -0.53,3.79c-0.25,2.19 -0.55,7.57 -0.55,7.57c-0.16,1.07 0.33,2.52 0,3.52c-0.05,0.16 -0.45,0.19 -0.53,0.55c-5.97,-1.57 -11.75,-2.67 -18.13,-4.07c0.13,-0.09 1,-3.79 1.36,-4.6c0.69,-1.67 8.23,-19.83 8.11,-20.29c-0.11,-0.37 -4.96,-4.21 -5.4,-4.32c-0.57,-0.15 -5.92,0.97 -6.51,1.08c-1.81,0.29 -4.84,1.12 -6.76,1.35c-2.07,0.24 -4.12,0.4 -5.68,0.55c-1.95,0.17 -4.65,-0.61 -6.49,0c-0.32,0.11 -0.41,0.61 -0.81,0.81c0,1.69 -0.41,4.05 0,5.68c0.05,0.21 0.45,0.47 0.55,0.8c2.48,0.28 5.28,0.12 8.12,-0.27c0,0 9.59,-1.83 10.01,-1.88c0.48,-0.09 2.15,-0.55 2.15,-0.55c0.63,-0.11 0.4,0.36 0.83,0.27c-0.39,2.71 -3.92,11.53 -4.33,12.72c-0.95,2.56 -2.36,5.37 -3.52,7.85c-8.75,0 -14.56,2.69 -18.95,7.01c-0.56,0.56 -1.43,0.99 -1.88,1.64c-0.44,0.57 -2.13,3.15 -2.44,3.79c-0.97,1.96 -1.47,4.84 -1.08,7.29c0.36,2.35 1.73,5.72 3.25,6.77c0.37,0.27 3.45,1.6 3.77,1.61c0.65,0.05 3.29,0.13 4.07,0c1.28,-0.2 5.57,-2.75 6.49,-3.51c0.39,-0.35 3.36,-3.37 4.32,-4.6c1.49,-1.93 4.4,-6.97 4.6,-7.31c1.2,-2.09 1.87,-3.92 3.25,-5.69c1.73,0.27 7.16,0.99 7.57,1.09c0.52,0.12 2.72,0.72 2.97,0.81c1.33,0.47 4.33,1.35 4.33,1.35c1.81,0.49 2.89,0.96 4.32,1.63c0,0 -0.84,3.11 -1.08,3.52c-1.31,2.17 -2.24,4.29 -3.79,6.23c-3.59,4.47 -10.27,7.89 -16.51,9.73c0.11,0.65 2.09,8.01 3.79,8.12c1.4,0.08 4.73,-2.33 5.43,-2.72c1.03,-0.57 5.16,-3.29 6.21,-4.05c0.52,-0.37 2.27,-1.84 2.71,-2.16c1.88,-1.39 6.31,-7.28 7.03,-8.39c0.85,-1.29 2.64,-6.47 3.52,-7.04l0.55,-0.27c0.75,-0.16 5.27,1.76 5.96,2.17c0.4,0.24 2.43,1.53 2.96,1.88c0.13,0.09 1.51,1.44 1.65,1.53c0.68,0.37 4.23,-5.93 4.85,-6.93c-0.41,-0.37 -2.53,-1.76 -3.52,-2.17l0.01,0.01zm-48.96,-0.53c-1.81,2.96 -4.12,7.52 -6.77,9.47c-0.51,0.37 -1.99,1.53 -2.44,1.63c-3.77,0.76 -4.71,-3.68 -3.52,-6.49c0,0 2.47,-3.49 4.07,-4.6c0.79,-0.56 2.69,-1.89 3.51,-2.16c0.96,-0.35 6.68,-2.8 6.43,-1.88c-0.71,2.55 -1.96,5.16 -1.28,4.04" fill="#3b4a73" fill-rule="nonzero" id="path92"/>
   <path d="m86.95,381.31c-2.21,-0.93 -4.95,-2.4 -7.31,-3.24c-1.16,-0.41 -1.84,-0.68 -2.71,-1.09c0.12,-0.07 -0.32,-0.99 -0.27,-1.35c0,0 1.79,-9.61 2.16,-13.52c0.01,-0.13 0.45,-1.36 0.27,-1.91c-0.05,-0.16 -0.45,-0.2 -0.53,-0.53c-2.52,-0.35 -4.97,-0.47 -7.31,-0.81c-0.08,0.35 -0.49,0.37 -0.55,0.55c-0.17,0.48 -0.51,3.49 -0.53,3.79c-0.25,2.19 -0.55,7.57 -0.55,7.57c-0.16,1.07 0.33,2.52 0,3.52c-0.05,0.16 -0.45,0.19 -0.53,0.55c-5.97,-1.57 -11.75,-2.67 -18.13,-4.07c0.13,-0.09 1,-3.79 1.36,-4.6c0.69,-1.67 8.23,-19.83 8.11,-20.29c-0.11,-0.37 -4.96,-4.21 -5.4,-4.32c-0.57,-0.15 -5.92,0.97 -6.51,1.08c-1.81,0.29 -4.84,1.12 -6.76,1.35c-2.07,0.24 -4.12,0.4 -5.68,0.55c-1.95,0.17 -4.65,-0.61 -6.49,0c-0.32,0.11 -0.41,0.61 -0.81,0.81c0,1.69 -0.41,4.05 0,5.68c0.05,0.21 0.45,0.47 0.55,0.8c2.48,0.28 5.28,0.12 8.12,-0.27c0,0 9.59,-1.83 10.01,-1.88c0.48,-0.09 2.15,-0.55 2.15,-0.55c0.63,-0.11 0.4,0.36 0.83,0.27c-0.39,2.71 -3.92,11.53 -4.33,12.72c-0.95,2.56 -2.36,5.37 -3.52,7.85c-8.75,0 -14.56,2.69 -18.95,7.01c-0.56,0.56 -1.43,0.99 -1.88,1.64c-0.44,0.57 -2.13,3.15 -2.44,3.79c-0.97,1.96 -1.47,4.84 -1.08,7.29c0.36,2.35 1.73,5.72 3.25,6.77c0.37,0.27 3.45,1.6 3.77,1.61c0.65,0.05 3.29,0.13 4.07,0c1.28,-0.2 5.57,-2.75 6.49,-3.51c0.39,-0.35 3.36,-3.37 4.32,-4.6c1.49,-1.93 4.4,-6.97 4.6,-7.31c1.2,-2.09 1.87,-3.92 3.25,-5.69c1.73,0.27 7.16,0.99 7.57,1.09c0.52,0.12 2.72,0.72 2.97,0.81c1.33,0.47 4.33,1.35 4.33,1.35c1.81,0.49 2.89,0.96 4.32,1.63c0,0 -0.84,3.11 -1.08,3.52c-1.31,2.17 -2.24,4.29 -3.79,6.23c-3.59,4.47 -10.27,7.89 -16.51,9.73c0.11,0.65 2.09,8.01 3.79,8.12c1.4,0.08 4.73,-2.33 5.43,-2.72c1.03,-0.57 5.16,-3.29 6.21,-4.05c0.52,-0.37 2.27,-1.84 2.71,-2.16c1.88,-1.39 6.31,-7.28 7.03,-8.39c0.85,-1.29 2.64,-6.47 3.52,-7.04l0.55,-0.27c0.75,-0.16 5.27,1.76 5.96,2.17c0.4,0.24 2.43,1.53 2.96,1.88c0.13,0.09 1.51,1.44 1.65,1.53c0.68,0.37 4.23,-5.93 4.85,-6.93c-0.41,-0.37 -2.53,-1.76 -3.52,-2.17m-48.97,-0.53c-1.8,2.96 -4.11,7.52 -6.76,9.47c-0.51,0.37 -1.99,1.53 -2.44,1.63c-3.77,0.76 -4.71,-3.68 -3.52,-6.49c0,0 2.47,-3.49 4.07,-4.6c0.79,-0.56 2.69,-1.89 3.51,-2.16c0.96,-0.35 6.68,-2.8 6.43,-1.88c-0.71,2.55 -1.96,5.16 -1.28,4.04" fill="none" id="path94" stroke="#ffffff" stroke-miterlimit="10" stroke-width="0.05"/>
   <path d="m188.63,615.55c-0.11,-0.37 -0.21,-9.17 0.56,-11.28c0,0 21.33,-1.73 21.69,-1.88c-0.48,-1.85 -0.53,-3.8 -0.53,-6.24c0,0 -14.53,2.76 -20.84,2.17c-0.44,-0.04 -0.53,-7.2 -0.53,-9.75c0.36,-0.17 23.31,-3.32 24.88,-3.77c0.23,-2 0.27,-4.89 0.27,-7.31c-2.59,0.05 -24.36,3.63 -24.37,3.52c-0.85,-7.19 -0.43,-11.96 -0.43,-11.96c-2.23,-0.69 -7.75,-0.09 -7.93,0.05c0.49,3.4 0.55,7.76 0.55,11.91c-0.4,0.17 -16.43,0.85 -27.05,-1.09c-1.81,-0.33 -0.52,4.21 -0.81,6.23c2.89,2.04 27.55,2.31 27.87,2.43c0,3.08 0.21,6.72 0.21,9.77c-0.4,0.19 -3.96,1.31 -10.72,0.85c-0.73,-0.05 -4.28,-1.64 -4.65,-2.23c-0.81,-1.29 -1.88,-4.33 -1.88,-4.33c-1,-0.31 -6.45,0.64 -6.51,0.81c-0.45,1.33 1.01,4.85 1.36,5.68c0.65,1.57 1.61,3.28 4.77,4.72c4.37,1.97 17.13,1.37 17.41,1.51c0,2.96 0,5.96 0,8.93c-0.31,0.13 -1.89,0.08 -2.75,-0.01c-8.96,-1.13 -17.43,2.69 -19.31,5.77c-1.56,2.53 -2.19,11.11 4.23,14.79c10.28,5.93 23.39,-0.56 24.52,-13.24c0.03,-0.29 9.88,1.39 22.81,10.57c0.57,0.4 5.35,-4.23 5.12,-4.36c-9.89,-6.23 -25.68,-11.68 -27.93,-12.27l-0.01,0.01zm-9.44,12.11c-1.95,1.95 -3.67,3 -6.2,3.39c-2.56,0.39 -7.48,-0.47 -8.32,-4.37c-0.71,-3.24 2.68,-6.61 7.32,-7.32c3.35,-0.51 8.32,-0.15 10.01,0.56c0.25,0.11 -1.27,6.21 -2.81,7.75" fill="#3b4a73" fill-rule="nonzero" id="path96"/>
   <path d="m188.63,615.55c-0.11,-0.37 -0.21,-9.17 0.56,-11.28c0,0 21.33,-1.73 21.69,-1.88c-0.48,-1.85 -0.53,-3.8 -0.53,-6.24c0,0 -14.53,2.76 -20.84,2.17c-0.44,-0.04 -0.53,-7.2 -0.53,-9.75c0.36,-0.17 23.31,-3.32 24.88,-3.77c0.23,-2 0.27,-4.89 0.27,-7.31c-2.59,0.05 -24.36,3.63 -24.37,3.52c-0.85,-7.19 -0.43,-11.96 -0.43,-11.96c-2.23,-0.69 -7.75,-0.09 -7.93,0.05c0.49,3.4 0.55,7.76 0.55,11.91c-0.4,0.17 -16.43,0.85 -27.05,-1.09c-1.81,-0.33 -0.52,4.21 -0.81,6.23c2.89,2.04 27.55,2.31 27.87,2.43c0,3.08 0.21,6.72 0.21,9.77c-0.4,0.19 -3.96,1.31 -10.72,0.85c-0.73,-0.05 -4.28,-1.64 -4.65,-2.23c-0.81,-1.29 -1.88,-4.33 -1.88,-4.33c-1,-0.31 -6.45,0.64 -6.51,0.81c-0.45,1.33 1.01,4.85 1.36,5.68c0.65,1.57 1.61,3.28 4.77,4.72c4.37,1.97 17.13,1.37 17.41,1.51c0,2.96 0,5.96 0,8.93c-0.31,0.13 -1.89,0.08 -2.75,-0.01c-8.96,-1.13 -17.43,2.69 -19.31,5.77c-1.56,2.53 -2.19,11.11 4.23,14.79c10.28,5.93 23.39,-0.56 24.52,-13.24c0.03,-0.29 9.88,1.39 22.81,10.57c0.57,0.4 5.35,-4.23 5.12,-4.36c-9.89,-6.23 -25.68,-11.68 -27.93,-12.27m-9.44,12.11c-1.95,1.95 -3.67,3 -6.2,3.39c-2.56,0.39 -7.48,-0.47 -8.32,-4.37c-0.71,-3.24 2.68,-6.61 7.32,-7.32c3.35,-0.51 8.32,-0.15 10.01,0.56c0.25,0.11 -1.27,6.21 -2.81,7.75" fill="none" id="path98" stroke="#ffffff" stroke-miterlimit="10" stroke-width="0.05"/>
   <path d="m66.92,430.81c1.09,-0.15 6.56,2.27 6.44,3.01c-0.07,0.4 -1.88,4.71 -2.45,6.29c-0.35,0.92 -1.32,2.87 1,3.03c0,0 2.59,-0.39 3.4,-0.52c1.03,-0.19 5.71,-0.88 6.04,-0.79c-0.21,1.99 0.03,3.31 0.27,5.51c-0.67,0.39 -13.53,2.45 -14.17,3.41c-0.69,1.04 -2.29,5.88 -2.63,6.81c-0.85,2.37 -14.4,32.41 -16,32.28c-0.57,-0.04 -4.56,-2.97 -5.25,-3.41c0.39,-1.31 0.55,-1.48 1.05,-2.35c1.89,-3.28 9.05,-17.61 9.45,-18.64c0.21,-0.59 1.27,-3.04 1.57,-3.67c1.44,-3.27 2.89,-6.52 3.67,-10.24c-0.33,-0.08 -0.36,-0.48 -0.53,-0.53c-2.6,-0.89 -10.39,-0.6 -10.75,-0.77c0,-2.12 -0.19,-3.49 -0.27,-5.52c0.39,-0.16 0.4,-0.67 0.79,-0.79c1.49,-0.44 11.97,1 13.39,0c1.11,-0.8 2.67,-7.95 3.15,-9.97c0.23,-0.96 0.72,-3.01 1.84,-3.15" fill="#3b4a73" fill-rule="nonzero" id="path100"/>
   <path d="m66.92,430.81c1.09,-0.15 6.56,2.27 6.44,3.01c-0.07,0.4 -1.88,4.71 -2.45,6.29c-0.35,0.92 -1.32,2.87 1,3.03c0,0 2.59,-0.39 3.4,-0.52c1.03,-0.19 5.71,-0.88 6.04,-0.79c-0.21,1.99 0.03,3.31 0.27,5.51c-0.67,0.39 -13.53,2.45 -14.17,3.41c-0.69,1.04 -2.29,5.88 -2.63,6.81c-0.85,2.37 -14.4,32.41 -16,32.28c-0.57,-0.04 -4.56,-2.97 -5.25,-3.41c0.39,-1.31 0.55,-1.48 1.05,-2.35c1.89,-3.28 9.05,-17.61 9.45,-18.64c0.21,-0.59 1.27,-3.04 1.57,-3.67c1.44,-3.27 2.89,-6.52 3.67,-10.24c-0.33,-0.08 -0.36,-0.48 -0.53,-0.53c-2.6,-0.89 -10.39,-0.6 -10.75,-0.77c0,-2.12 -0.19,-3.49 -0.27,-5.52c0.39,-0.16 0.4,-0.67 0.79,-0.79c1.49,-0.44 11.97,1 13.39,0c1.11,-0.8 2.67,-7.95 3.15,-9.97c0.23,-0.96 0.72,-3.01 1.84,-3.15" fill="none" id="path102" stroke="#ffffff" stroke-miterlimit="10" stroke-width="0.05"/>
   <path d="m87.65,442.63c4.71,0.52 20.99,5.07 24.4,6.55c-0.4,1.03 -2.2,7.57 -3.4,6.83c-2.76,-1.67 -22.77,-7.35 -23.11,-7.6c0.24,-0.93 0.89,-5.16 1.32,-5.52c0.13,-0.12 0.68,-0.11 0.79,-0.25" fill="#3b4a73" fill-rule="nonzero" id="path104"/>
   <path d="m87.65,442.63c4.71,0.52 20.99,5.07 24.4,6.55c-0.4,1.03 -2.2,7.57 -3.4,6.83c-2.76,-1.67 -22.77,-7.35 -23.11,-7.6c0.24,-0.93 0.89,-5.16 1.32,-5.52c0.13,-0.12 0.68,-0.11 0.79,-0.25" fill="none" id="path106" stroke="#ffffff" stroke-miterlimit="10" stroke-width="0.05"/>
   <path d="m97.09,478.84c-0.37,-0.2 -1.19,-0.88 -1.31,-1.32c-0.48,-1.64 0.15,-21.73 0,-21.77c-0.84,-0.29 -4.88,-0.47 -6.29,-0.53c-0.07,0.15 0.55,16.84 -0.13,21.4c0.05,-0.35 -5.12,-1.29 -6.69,-1.45c-6.47,-0.65 -13.2,1.88 -15.48,5.25c-0.51,0.71 -1.39,3.73 -1.33,4.27c0.64,7.31 6.69,11.88 15.49,11.75c2.43,-0.04 9.92,-1.41 12.67,-8.07c0.33,-0.81 1.43,-2.81 1.64,-3.15c1.89,0.77 6.28,1.92 14.57,6.48c0.67,0.37 2.04,-4.55 2.61,-5.77c-2.84,-1.81 -14.13,-6.27 -15.75,-7.08l0,-0.01zm-14.16,12.12c-11.64,1.63 -10.77,-5.33 -10.8,-5.61c-0.13,-3.53 4.57,-4.25 7.25,-4.49c3.95,-0.37 6.41,0.68 9.97,2.04c0.29,0.12 0.85,7.05 -6.43,8.07" fill="#3b4a73" fill-rule="nonzero" id="path108"/>
   <path d="m97.09,478.84c-0.37,-0.2 -1.19,-0.88 -1.31,-1.32c-0.48,-1.64 0.15,-21.73 0,-21.77c-0.84,-0.29 -4.88,-0.47 -6.29,-0.53c-0.07,0.15 0.55,16.84 -0.13,21.4c0.05,-0.35 -5.12,-1.29 -6.69,-1.45c-6.47,-0.65 -13.2,1.88 -15.48,5.25c-0.51,0.71 -1.39,3.73 -1.33,4.27c0.64,7.31 6.69,11.88 15.49,11.75c2.43,-0.04 9.92,-1.41 12.67,-8.07c0.33,-0.81 1.43,-2.81 1.64,-3.15c1.89,0.77 6.28,1.92 14.57,6.48c0.67,0.37 2.04,-4.55 2.61,-5.77c-2.84,-1.81 -14.13,-6.27 -15.75,-7.08m-14.16,12.12c-11.64,1.63 -10.77,-5.33 -10.8,-5.61c-0.13,-3.53 4.57,-4.25 7.25,-4.49c3.95,-0.37 6.41,0.68 9.97,2.04c0.29,0.12 0.85,7.05 -6.43,8.07" fill="none" id="path110" stroke="#ffffff" stroke-miterlimit="10" stroke-width="0.05"/>
   <path d="m406.17,613.4c1.04,0.35 5.08,1.95 5.77,2.09c0.21,1.24 0.63,1.43 0,3.16c-0.39,1.04 -5.01,11.77 -5.24,13.12c-0.72,4.03 -0.27,18.57 -0.27,22.91c0,12.32 0.92,17.71 0,29.57c-0.2,0.07 -5.63,-0.08 -6.03,-0.25c0,-12.41 -0.27,-27.16 -0.27,-39.57c-0.27,0.15 -4.83,9.03 -5.25,9.64c-0.39,-0.35 -4.11,-5 -3.93,-6.55c0.01,-0.17 0.59,-1.25 0.79,-1.57c1.55,-2.85 3.65,-5.81 5.25,-8.67c1.05,-1.92 3.51,-7.35 3.67,-8.13c0.08,-0.48 1.08,-3.32 1.31,-3.93c1.23,-3.41 2.13,-6.71 2.89,-10.51c0,-0.05 0.43,-0.99 0.52,-1.04c0.28,-0.23 0.55,-0.03 0.79,-0.27" fill="#3b4a73" fill-rule="nonzero" id="path112"/>
   <path d="m406.17,613.4c1.04,0.35 5.08,1.95 5.77,2.09c0.21,1.24 0.63,1.43 0,3.16c-0.39,1.04 -5.01,11.77 -5.24,13.12c-0.72,4.03 -0.27,18.57 -0.27,22.91c0,12.32 0.92,17.71 0,29.57c-0.2,0.07 -5.63,-0.08 -6.03,-0.25c0,-12.41 -0.27,-27.16 -0.27,-39.57c-0.27,0.15 -4.83,9.03 -5.25,9.64c-0.39,-0.35 -4.11,-5 -3.93,-6.55c0.01,-0.17 0.59,-1.25 0.79,-1.57c1.55,-2.85 3.65,-5.81 5.25,-8.67c1.05,-1.92 3.51,-7.35 3.67,-8.13c0.08,-0.48 1.08,-3.32 1.31,-3.93c1.23,-3.41 2.13,-6.71 2.89,-10.51c0,-0.05 0.43,-0.99 0.52,-1.04c0.28,-0.23 0.55,-0.03 0.79,-0.27" fill="none" id="path114" stroke="#ffffff" stroke-miterlimit="10" stroke-width="0.05"/>
   <path d="m443.19,655.39c-0.13,-0.36 0.12,-0.73 0,-1.04c0.37,-0.11 0.68,-0.17 1.29,-0.28c-0.36,-0.04 14.76,0.49 16.35,-0.35c0,0 -0.07,-3.61 -0.07,-5.41c-7.25,0 -14.51,0 -21.77,0c0,-2.53 0,-5.08 0,-7.61c0.25,-0.12 14.23,-0.36 14.6,-0.51c0,-3.23 0.09,-19.6 0.09,-23.39c-12.33,0 -24.67,0 -37.01,0c-0.28,7.08 -0.25,15.89 -0.25,23.39c0.32,0.08 15.76,-0.03 16.12,0.15c0,2.45 -0.12,5.52 -0.12,7.97c-7.01,0 -14.96,-0.48 -21.51,0.25c-0.17,1.41 -0.16,3.87 0,5.25c3.12,0.25 15.44,0.07 16,0.25c0.19,0.07 0.59,0.15 0.99,0.21c-0.29,0.59 -0.43,1.09 -0.73,1.63c-0.75,1.33 -11.68,11.33 -12.59,12.08c-1.49,1.19 -3.27,1.99 -4.73,3.15c0.28,0.57 -0.01,0.8 0.28,1.31c0.15,0.28 0.85,0.55 1.04,0.79c1,1.23 1.83,2.59 2.63,3.95c0.19,-0.12 0.56,0.08 0.79,0c0.83,-0.33 16.4,-16.17 16.53,-16.28c0.33,-0.25 0.69,0 1.05,-0.25c0.07,0.32 0.45,0.36 0.52,0.52c0.47,1.36 0,16.81 0,22.56c0.39,0.19 0.52,0.71 0.79,0.8c1.93,0.64 4.53,0.37 5.49,-0.04c0,-7.32 -0.27,-16.19 0.28,-23.05c0.31,0.15 0.71,-0.13 1.05,0c0.11,0.03 4.16,3.83 4.68,4.47c1.04,1.23 12.73,11.69 13.43,11.8c1.32,-2.17 2.51,-4.28 3.93,-6.31c-0.24,-0.16 -18.89,-15.24 -19.15,-16l0,-0.01zm-20.48,-20.73c0,-4.28 0,-8.57 0,-12.85c8.11,0 16.29,0 24.4,0c0,4.28 0,8.57 0,12.85c-8.11,0 -16.29,0 -24.4,0" fill="#3b4a73" fill-rule="nonzero" id="path116"/>
   <path d="m443.19,655.39c-0.13,-0.36 0.12,-0.73 0,-1.04c0.37,-0.11 0.68,-0.17 1.29,-0.28c-0.36,-0.04 14.76,0.49 16.35,-0.35c0,0 -0.07,-3.61 -0.07,-5.41c-7.25,0 -14.51,0 -21.77,0c0,-2.53 0,-5.08 0,-7.61c0.25,-0.12 14.23,-0.36 14.6,-0.51c0,-3.23 0.09,-19.6 0.09,-23.39c-12.33,0 -24.67,0 -37.01,0c-0.28,7.08 -0.25,15.89 -0.25,23.39c0.32,0.08 15.76,-0.03 16.12,0.15c0,2.45 -0.12,5.52 -0.12,7.97c-7.01,0 -14.96,-0.48 -21.51,0.25c-0.17,1.41 -0.16,3.87 0,5.25c3.12,0.25 15.44,0.07 16,0.25c0.19,0.07 0.59,0.15 0.99,0.21c-0.29,0.59 -0.43,1.09 -0.73,1.63c-0.75,1.33 -11.68,11.33 -12.59,12.08c-1.49,1.19 -3.27,1.99 -4.73,3.15c0.28,0.57 -0.01,0.8 0.28,1.31c0.15,0.28 0.85,0.55 1.04,0.79c1,1.23 1.83,2.59 2.63,3.95c0.19,-0.12 0.56,0.08 0.79,0c0.83,-0.33 16.4,-16.17 16.53,-16.28c0.33,-0.25 0.69,0 1.05,-0.25c0.07,0.32 0.45,0.36 0.52,0.52c0.47,1.36 0,16.81 0,22.56c0.39,0.19 0.52,0.71 0.79,0.8c1.93,0.64 4.53,0.37 5.49,-0.04c0,-7.32 -0.27,-16.19 0.28,-23.05c0.31,0.15 0.71,-0.13 1.05,0c0.11,0.03 4.16,3.83 4.68,4.47c1.04,1.23 12.73,11.69 13.43,11.8c1.32,-2.17 2.51,-4.28 3.93,-6.31c-0.24,-0.16 -18.89,-15.24 -19.15,-16m-20.48,-20.73c0,-4.28 0,-8.57 0,-12.85c8.11,0 16.29,0 24.4,0c0,4.28 0,8.57 0,12.85c-8.11,0 -16.29,0 -24.4,0" fill="none" id="path118" stroke="#ffffff" stroke-miterlimit="10" stroke-width="0.05"/>
   <path d="m513.17,575.36c1.07,0.32 1.51,0.15 2.43,0.53c0.03,0 0.28,0.55 0.28,0.55c0.88,0.35 1.83,0.93 2.44,1.09c0.17,0.04 0.67,-0.13 0.8,0c0,0.08 0,0.17 0,0.27c1.77,0.88 -0.97,4.04 -1.08,4.87c-0.15,0.97 0.45,1.08 0.55,1.63c11.45,0 22.91,0 34.36,0c0.11,1.39 0.85,4.72 0.27,6.49c-0.11,0.28 -0.63,0.43 -0.81,0.8c-9.91,0 -36.44,-0.6 -38.15,0c0,0.01 -9.76,14.11 -10.83,15.43c-0.48,0.6 -1.69,1.36 -1.89,2.16c-0.43,1.75 -0.21,5.63 -0.27,5.15c0.03,0.21 0.09,28.93 0.55,32.19c-0.32,0.24 -0.47,0.96 -0.81,1.09c-1.68,0.6 -4.43,0.05 -6.23,0c-0.15,-0.31 -0.73,-0.59 -0.81,-0.81c-0.35,-1.04 0.27,-3.47 0.27,-4.87c0,0 -0.17,-22.4 -0.53,-24.09c-0.33,0.16 -0.73,-0.12 -1.08,0c-0.16,0.07 -0.4,0.67 -0.55,0.83c-1.03,0.97 -2.35,1.88 -3.24,2.97c-0.51,0.59 -2.37,2.71 -2.99,3.24c0.17,0.08 -0.85,0.12 -1.08,0c-0.35,-0.19 -3.88,-4.61 -4.05,-4.87c-0.33,-0.47 0.01,-0.8 -0.27,-1.35c1.79,-1.24 9.69,-7.33 10.27,-8.12c0.33,-0.44 2.93,-3.13 3.25,-4.6c0.23,-1.05 0,-2.44 0,-3.52c0.33,-0.08 0.37,-0.49 0.55,-0.53c1.24,-0.44 2.8,0.19 3.79,-0.28c1.05,-0.51 3.03,-3.81 3.24,-4.05c1.41,-1.73 2.65,-3.75 3.8,-5.68c-5.52,0 -22.67,-0.47 -23,-0.55c0,-2.17 0,-4.32 0,-6.49c6.03,-0.48 13.27,-0.27 19.75,-0.27c1.95,0 4.63,0.49 6.49,0c0.15,-0.04 0.96,-0.65 1.08,-0.81c0.45,-0.65 1.28,-3.08 1.35,-3.25c0.56,-1.59 0.51,-3.24 1.36,-4.6c0.08,-0.13 0.72,-0.4 0.81,-0.53" fill="#3b4a73" fill-rule="nonzero" id="path120"/>
   <path d="m513.17,575.36c1.07,0.32 1.51,0.15 2.43,0.53c0.03,0 0.28,0.55 0.28,0.55c0.88,0.35 1.83,0.93 2.44,1.09c0.17,0.04 0.67,-0.13 0.8,0c0,0.08 0,0.17 0,0.27c1.77,0.88 -0.97,4.04 -1.08,4.87c-0.15,0.97 0.45,1.08 0.55,1.63c11.45,0 22.91,0 34.36,0c0.11,1.39 0.85,4.72 0.27,6.49c-0.11,0.28 -0.63,0.43 -0.81,0.8c-9.91,0 -36.44,-0.6 -38.15,0c0,0.01 -9.76,14.11 -10.83,15.43c-0.48,0.6 -1.69,1.36 -1.89,2.16c-0.43,1.75 -0.21,5.63 -0.27,5.15c0.03,0.21 0.09,28.93 0.55,32.19c-0.32,0.24 -0.47,0.96 -0.81,1.09c-1.68,0.6 -4.43,0.05 -6.23,0c-0.15,-0.31 -0.73,-0.59 -0.81,-0.81c-0.35,-1.04 0.27,-3.47 0.27,-4.87c0,0 -0.17,-22.4 -0.53,-24.09c-0.33,0.16 -0.73,-0.12 -1.08,0c-0.16,0.07 -0.4,0.67 -0.55,0.83c-1.03,0.97 -2.35,1.88 -3.24,2.97c-0.51,0.59 -2.37,2.71 -2.99,3.24c0.17,0.08 -0.85,0.12 -1.08,0c-0.35,-0.19 -3.88,-4.61 -4.05,-4.87c-0.33,-0.47 0.01,-0.8 -0.27,-1.35c1.79,-1.24 9.69,-7.33 10.27,-8.12c0.33,-0.44 2.93,-3.13 3.25,-4.6c0.23,-1.05 0,-2.44 0,-3.52c0.33,-0.08 0.37,-0.49 0.55,-0.53c1.24,-0.44 2.8,0.19 3.79,-0.28c1.05,-0.51 3.03,-3.81 3.24,-4.05c1.41,-1.73 2.65,-3.75 3.8,-5.68c-5.52,0 -22.67,-0.47 -23,-0.55c0,-2.17 0,-4.32 0,-6.49c6.03,-0.48 13.27,-0.27 19.75,-0.27c1.95,0 4.63,0.49 6.49,0c0.15,-0.04 0.96,-0.65 1.08,-0.81c0.45,-0.65 1.28,-3.08 1.35,-3.25c0.56,-1.59 0.51,-3.24 1.36,-4.6c0.08,-0.13 0.72,-0.4 0.81,-0.53" fill="none" id="path122" stroke="#ffffff" stroke-miterlimit="10" stroke-width="0.05"/>
   <path d="m513.17,597.55c7.76,0 15.51,0 23.27,0c2.27,0 5.4,-0.59 7.57,0c0.49,0.13 0.73,0.77 1.08,1.08c1.25,1.11 2.08,2.31 2.99,3.79c-0.51,0.6 -12.07,10.07 -12.72,11.09c-0.36,0.53 -0.89,2.8 -0.81,3.52c0.07,0.73 0.6,1.73 1.08,1.89c0.59,0.17 9.91,-0.27 13.8,-0.27c0.99,0 2.6,-0.32 3.52,0c0.16,0.04 0.19,0.45 0.53,0.55c0,1.43 0.47,3.8 0,5.13c-0.05,0.15 -1.17,1.04 -1.35,1.08c-1.48,0.39 -13.08,0 -17.04,0c-0.69,5.01 0.59,12.53 -0.81,17.04c-0.48,1.52 -1.01,2.8 -2.17,3.52c-0.59,0.36 -3.52,1.48 -4.05,1.63c-1.11,0.28 -3.01,0.71 -3.79,0.81c-0.21,0.01 -1.8,-0.55 -1.89,-0.55c-0.4,-1.45 -2.33,-5.83 -2.44,-6.23c-0.12,-0.41 0.13,-0.92 0,-1.35c1.63,-0.13 5.11,0.44 6.49,-0.27c0.01,-0.03 0.8,-0.81 0.81,-0.81c0.57,-1.73 0.21,-11.33 0,-13.27c-0.35,-0.08 -0.39,-0.48 -0.53,-0.53c-1.43,-0.49 -14.63,0 -19.23,0c-0.17,-1.65 -0.27,-4.16 -0.27,-6.21c5.83,-0.48 14.05,-0.35 20.35,-0.35c0.2,-0.44 -0.25,-6.55 -0.05,-8.32c0.77,-0.21 1.67,-0.19 2.44,-0.55c0.39,-0.19 4.6,-4.87 4.6,-4.87c-0.35,-0.08 -0.37,-0.48 -0.55,-0.55c-1.56,-0.53 -4.28,0 -5.95,0c-4.95,0 -9.92,0 -14.88,0c-0.16,-0.31 -0.73,-0.57 -0.81,-0.8c-0.35,-1.04 -0.37,-4.65 0,-5.68c0.07,-0.2 0.73,-0.35 0.81,-0.55" fill="#3b4a73" fill-rule="nonzero" id="path124"/>
   <path d="m513.17,597.55c7.76,0 15.51,0 23.27,0c2.27,0 5.4,-0.59 7.57,0c0.49,0.13 0.73,0.77 1.08,1.08c1.25,1.11 2.08,2.31 2.99,3.79c-0.51,0.6 -12.07,10.07 -12.72,11.09c-0.36,0.53 -0.89,2.8 -0.81,3.52c0.07,0.73 0.6,1.73 1.08,1.89c0.59,0.17 9.91,-0.27 13.8,-0.27c0.99,0 2.6,-0.32 3.52,0c0.16,0.04 0.19,0.45 0.53,0.55c0,1.43 0.47,3.8 0,5.13c-0.05,0.15 -1.17,1.04 -1.35,1.08c-1.48,0.39 -13.08,0 -17.04,0c-0.69,5.01 0.59,12.53 -0.81,17.04c-0.48,1.52 -1.01,2.8 -2.17,3.52c-0.59,0.36 -3.52,1.48 -4.05,1.63c-1.11,0.28 -3.01,0.71 -3.79,0.81c-0.21,0.01 -1.8,-0.55 -1.89,-0.55c-0.4,-1.45 -2.33,-5.83 -2.44,-6.23c-0.12,-0.41 0.13,-0.92 0,-1.35c1.63,-0.13 5.11,0.44 6.49,-0.27c0.01,-0.03 0.8,-0.81 0.81,-0.81c0.57,-1.73 0.21,-11.33 0,-13.27c-0.35,-0.08 -0.39,-0.48 -0.53,-0.53c-1.43,-0.49 -14.63,0 -19.23,0c-0.17,-1.65 -0.27,-4.16 -0.27,-6.21c5.83,-0.48 14.05,-0.35 20.35,-0.35c0.2,-0.44 -0.25,-6.55 -0.05,-8.32c0.77,-0.21 1.67,-0.19 2.44,-0.55c0.39,-0.19 4.6,-4.87 4.6,-4.87c-0.35,-0.08 -0.37,-0.48 -0.55,-0.55c-1.56,-0.53 -4.28,0 -5.95,0c-4.95,0 -9.92,0 -14.88,0c-0.16,-0.31 -0.73,-0.57 -0.81,-0.8c-0.35,-1.04 -0.37,-4.65 0,-5.68c0.07,-0.2 0.73,-0.35 0.81,-0.55" fill="none" id="path126" stroke="#ffffff" stroke-miterlimit="10" stroke-width="0.05"/>
   <path d="m694.44,359.08c-2.63,-1.07 -6.04,-2.01 -8.56,-3.37c-5.45,-2.93 -20.61,-16.13 -22.16,-17.36c-0.39,-0.31 -0.99,-3.88 -1.83,-4.45c-0.63,-0.43 -6.33,-2.29 -7.35,-2.11c-0.64,0.12 -0.95,0.63 -1.32,1.05c-1.23,1.44 -2.39,2.84 -3.41,4.45c-3.16,5.01 -14.64,15.27 -19.41,17.85c-3.29,1.77 -6.45,3.6 -9.71,5.51c0.13,0.33 -0.12,0.71 0,1.05c0.13,0.39 1.09,0.97 1.31,1.32c0.91,1.33 1.47,2.92 2.36,4.2c0.59,-0.28 10.36,-6.87 11.29,-7.61c0.32,0.28 1.16,0.36 1.31,0.79c0.35,1.03 0,2.87 0,3.93c12.59,0 25.2,0 37.79,0c0.17,-0.39 0.69,-0.52 0.79,-0.8c0.6,-1.8 -0.83,-3.23 0,-4.71c0.13,-0.25 0.91,-0.27 1.05,-0.53c0.71,0.53 4.31,2.91 5.52,3.68c0.43,0.27 6.12,3.76 7.35,4.2c1.11,-1.07 4.68,-5.19 4.99,-6.04c0.11,-0.35 -0.16,-0.75 0,-1.05l-0.01,0zm-54.85,-1.57c0.11,-0.19 -0.09,-0.56 0,-0.79c0.15,-0.4 2.27,-2.15 2.88,-2.61c0.43,-0.35 12.31,-12.12 13.65,-13.4c0.2,0.13 0.57,-0.07 0.79,0c0.53,0.21 0.68,1.13 1.05,1.59c0.92,1.15 11.8,10.91 12.33,11.28c0.8,0.56 2.92,2.27 3.15,2.63c0.29,0.48 -0.01,0.72 0.27,1.31c-10.49,0.81 -23.63,0.81 -34.12,0" fill="#3b4a73" fill-rule="nonzero" id="path128"/>
   <path d="m694.44,359.08c-2.63,-1.07 -6.04,-2.01 -8.56,-3.37c-5.45,-2.93 -20.61,-16.13 -22.16,-17.36c-0.39,-0.31 -0.99,-3.88 -1.83,-4.45c-0.63,-0.43 -6.33,-2.29 -7.35,-2.11c-0.64,0.12 -0.95,0.63 -1.32,1.05c-1.23,1.44 -2.39,2.84 -3.41,4.45c-3.16,5.01 -14.64,15.27 -19.41,17.85c-3.29,1.77 -6.45,3.6 -9.71,5.51c0.13,0.33 -0.12,0.71 0,1.05c0.13,0.39 1.09,0.97 1.31,1.32c0.91,1.33 1.47,2.92 2.36,4.2c0.59,-0.28 10.36,-6.87 11.29,-7.61c0.32,0.28 1.16,0.36 1.31,0.79c0.35,1.03 0,2.87 0,3.93c12.59,0 25.2,0 37.79,0c0.17,-0.39 0.69,-0.52 0.79,-0.8c0.6,-1.8 -0.83,-3.23 0,-4.71c0.13,-0.25 0.91,-0.27 1.05,-0.53c0.71,0.53 4.31,2.91 5.52,3.68c0.43,0.27 6.12,3.76 7.35,4.2c1.11,-1.07 4.68,-5.19 4.99,-6.04c0.11,-0.35 -0.16,-0.75 0,-1.05m-54.85,-1.57c0.11,-0.19 -0.09,-0.56 0,-0.79c0.15,-0.4 2.27,-2.15 2.88,-2.61c0.43,-0.35 12.31,-12.12 13.65,-13.4c0.2,0.13 0.57,-0.07 0.79,0c0.53,0.21 0.68,1.13 1.05,1.59c0.92,1.15 11.8,10.91 12.33,11.28c0.8,0.56 2.92,2.27 3.15,2.63c0.29,0.48 -0.01,0.72 0.27,1.31c-10.49,0.81 -23.63,0.81 -34.12,0" fill="none" id="path130" stroke="#ffffff" stroke-miterlimit="10" stroke-width="0.05"/>
   <path d="m624.89,371.68c-0.08,0.19 -0.73,0.33 -0.79,0.52c-0.55,1.51 0,4.17 0,5.77c4.04,0.32 9.17,0.27 13.64,0.27c1.35,0 3.75,-0.48 4.99,0c0,0 0.76,1.03 0.79,1.05c0,0 -1.41,3.92 -2.73,7.44c-0.56,1.45 -2.59,6.4 -3.31,7.77c-0.07,0.16 -2.92,0.81 -3.15,0.8c-1.52,-0.13 -5.72,-0.12 -6.81,0.25c-0.17,0.05 -0.2,0.44 -0.53,0.53c0.75,2.85 1.17,5.8 2.63,7.87c3.59,-0.53 6.23,-1.31 10.07,-1.79c2.92,-0.37 34.99,-5.73 35.85,-5.56c2.13,0.41 2.85,5.49 4.73,6.56c1.93,1.11 5.6,-2.2 6.03,-2.63c0.79,-0.77 -1.81,-4.95 -2.61,-6.04c-0.35,-0.45 -12.35,-13.56 -12.6,-13.64c-0.29,-0.11 -1,-0.05 -1.32,0c-0.59,0.09 -3.47,2.48 -4.19,2.89c0.13,0.31 -0.13,0.69 0,1.04c0.07,0.21 0.89,0.61 1.04,0.79c0.79,0.96 3.52,3.43 3.93,4.2c0.28,0.52 0.04,0.93 0.27,1.57c-2.95,0.65 -23.2,3.57 -25.19,2.89c-0.17,-0.07 -0.43,-0.84 -0.53,-0.53c1.15,-3.71 2.69,-6.87 4.16,-10.13c0.45,-1.03 2.61,-4.01 3.19,-4.56c1.49,-1.43 25.77,-0.79 30.44,-0.79c1.93,0 5.04,0.6 6.83,0c0.25,-0.09 0.44,-0.63 0.79,-0.79c0,-1.88 -0.15,-4.31 -0.25,-5.77c-21.77,0 -43.57,0 -65.35,0" fill="#3b4a73" fill-rule="nonzero" id="path132"/>
   <path d="m624.89,371.68c-0.08,0.19 -0.73,0.33 -0.79,0.52c-0.55,1.51 0,4.17 0,5.77c4.04,0.32 9.17,0.27 13.64,0.27c1.35,0 3.75,-0.48 4.99,0c0,0 0.76,1.03 0.79,1.05c0,0 -1.41,3.92 -2.73,7.44c-0.56,1.45 -2.59,6.4 -3.31,7.77c-0.07,0.16 -2.92,0.81 -3.15,0.8c-1.52,-0.13 -5.72,-0.12 -6.81,0.25c-0.17,0.05 -0.2,0.44 -0.53,0.53c0.75,2.85 1.17,5.8 2.63,7.87c3.59,-0.53 6.23,-1.31 10.07,-1.79c2.92,-0.37 34.99,-5.73 35.85,-5.56c2.13,0.41 2.85,5.49 4.73,6.56c1.93,1.11 5.6,-2.2 6.03,-2.63c0.79,-0.77 -1.81,-4.95 -2.61,-6.04c-0.35,-0.45 -12.35,-13.56 -12.6,-13.64c-0.29,-0.11 -1,-0.05 -1.32,0c-0.59,0.09 -3.47,2.48 -4.19,2.89c0.13,0.31 -0.13,0.69 0,1.04c0.07,0.21 0.89,0.61 1.04,0.79c0.79,0.96 3.52,3.43 3.93,4.2c0.28,0.52 0.04,0.93 0.27,1.57c-2.95,0.65 -23.2,3.57 -25.19,2.89c-0.17,-0.07 -0.43,-0.84 -0.53,-0.53c1.15,-3.71 2.69,-6.87 4.16,-10.13c0.45,-1.03 2.61,-4.01 3.19,-4.56c1.49,-1.43 25.77,-0.79 30.44,-0.79c1.93,0 5.04,0.6 6.83,0c0.25,-0.09 0.44,-0.63 0.79,-0.79c0,-1.88 -0.15,-4.31 -0.25,-5.77c-21.77,0 -43.57,0 -65.35,0" fill="none" id="path134" stroke="#ffffff" stroke-miterlimit="10" stroke-width="0.05"/>
   <path d="m654.15,440.48c0,0 -0.13,-13.19 -0.51,-17.85c-14.97,0 -29.16,0 -44.15,0c-0.08,0.2 -0.16,17.79 0,18.13c9.23,0 40.84,0.15 44.65,-0.28l0.01,0zm-7.59,-12.16c0,2.19 0,4.32 0,6.48c-7.65,0 -28.15,0.21 -30.03,0c-0.13,-1.64 -0.27,-4.4 -0.27,-6.48c10.09,0 20.21,0 30.29,0" fill="#3b4a73" fill-rule="nonzero" id="path136"/>
   <path d="m654.15,440.48c0,0 -0.13,-13.19 -0.51,-17.85c-14.97,0 -29.16,0 -44.15,0c-0.08,0.2 -0.16,17.79 0,18.13c9.23,0 40.84,0.15 44.65,-0.28m-7.59,-12.16c0,2.19 0,4.32 0,6.48c-7.65,0 -28.15,0.21 -30.03,0c-0.13,-1.64 -0.27,-4.4 -0.27,-6.48c10.09,0 20.21,0 30.29,0" fill="none" id="path138" stroke="#ffffff" stroke-miterlimit="10" stroke-width="0.05"/>
   <path d="m655.23,485.13c-2.16,-0.72 -4.17,-1.96 -6.51,-2.72c0.08,-0.03 0,-0.95 0,-1.08c3.45,0 10.56,-0.27 10.56,-0.27c-0.15,-14.33 -0.43,-24.56 -0.43,-36.45c-18.4,0 -36.11,-0.07 -54.49,-0.07c-0.29,7.09 0.52,13.44 0,36.79c0,0 7.91,-0.15 11.09,0.28c0,0.15 -0.09,1.01 0,1.08c-2.21,0.89 -4.69,2.44 -7.04,2.97c-0.6,0.13 -9.87,2.25 -12.71,2.99c0.13,0.32 -0.13,0.72 0,1.07c0.2,0.6 1.55,1.84 1.88,2.45c0.75,1.25 1.21,2.61 1.91,3.79c1.43,-0.23 18.63,-6.48 19.2,-6.77c1.77,-0.89 3.67,-1.63 5.41,-2.44c-0.15,-0.41 -0.71,-1.75 -0.81,-1.89c-0.23,-0.29 -1.63,-1.88 -1.63,-1.88c-0.12,-0.36 0.16,-0.77 0,-1.09c0.28,-0.21 0.47,-0.11 0.55,-0.55c4.88,0 9.75,0 14.61,0c1.44,0 3.79,-0.45 5.13,0c0,0 0.49,0.51 0.55,0.55c-0.36,0.68 -0.37,1.31 -0.81,1.89c-0.47,0.61 -2.28,2.65 -2.44,2.97c3.49,1.43 6.36,3 10.01,4.33c0.75,0.27 12.84,3.85 15.69,4.6c1.41,-2.37 2.69,-4.61 3.79,-7.31c-1.16,-0.51 -10.48,-2.24 -13.52,-3.24l0.01,0zm-3.8,-34.36c0.17,1.59 0.15,2.47 0,4.32c-13.24,0 -26.52,0 -39.76,0c-0.2,-1.31 -0.27,-2.72 -0.27,-4.32c11.97,0 38.61,0 40.03,0zm0.28,14.88c-13.17,0 -26.33,0 -39.51,0c-0.55,-1.07 -0.25,-4.96 0.28,-5.15c1.59,-0.59 30.52,0.17 38.89,-0.25c0,0 0.33,0.8 0.33,5.4l0.01,0zm-40.04,10.01c-0.16,-1.89 -0.32,-3.07 0.53,-4.88c0.32,0 39.23,0.28 39.23,0.28c0.13,1.27 0.28,3.2 0.28,4.87c-8.2,0 -40.04,-0.27 -40.04,-0.27" fill="#3b4a73" fill-rule="nonzero" id="path140"/>
   <path d="m655.23,485.13c-2.16,-0.72 -4.17,-1.96 -6.51,-2.72c0.08,-0.03 0,-0.95 0,-1.08c3.45,0 10.56,-0.27 10.56,-0.27c-0.15,-14.33 -0.43,-24.56 -0.43,-36.45c-18.4,0 -36.11,-0.07 -54.49,-0.07c-0.29,7.09 0.52,13.44 0,36.79c0,0 7.91,-0.15 11.09,0.28c0,0.15 -0.09,1.01 0,1.08c-2.21,0.89 -4.69,2.44 -7.04,2.97c-0.6,0.13 -9.87,2.25 -12.71,2.99c0.13,0.32 -0.13,0.72 0,1.07c0.2,0.6 1.55,1.84 1.88,2.45c0.75,1.25 1.21,2.61 1.91,3.79c1.43,-0.23 18.63,-6.48 19.2,-6.77c1.77,-0.89 3.67,-1.63 5.41,-2.44c-0.15,-0.41 -0.71,-1.75 -0.81,-1.89c-0.23,-0.29 -1.63,-1.88 -1.63,-1.88c-0.12,-0.36 0.16,-0.77 0,-1.09c0.28,-0.21 0.47,-0.11 0.55,-0.55c4.88,0 9.75,0 14.61,0c1.44,0 3.79,-0.45 5.13,0c0,0 0.49,0.51 0.55,0.55c-0.36,0.68 -0.37,1.31 -0.81,1.89c-0.47,0.61 -2.28,2.65 -2.44,2.97c3.49,1.43 6.36,3 10.01,4.33c0.75,0.27 12.84,3.85 15.69,4.6c1.41,-2.37 2.69,-4.61 3.79,-7.31c-1.16,-0.51 -10.48,-2.24 -13.52,-3.24m-3.8,-34.36c0.17,1.59 0.15,2.47 0,4.32c-13.24,0 -26.52,0 -39.76,0c-0.2,-1.31 -0.27,-2.72 -0.27,-4.32c11.97,0 38.61,0 40.03,0m0.28,14.88c-13.17,0 -26.33,0 -39.51,0c-0.55,-1.07 -0.25,-4.96 0.28,-5.15c1.59,-0.59 30.52,0.17 38.89,-0.25c0,0 0.33,0.8 0.33,5.4m-40.04,10.01c-0.16,-1.89 -0.32,-3.07 0.53,-4.88c0.32,0 39.23,0.28 39.23,0.28c0.13,1.27 0.28,3.2 0.28,4.87c-8.2,0 -40.04,-0.27 -40.04,-0.27" fill="none" id="path142" stroke="#ffffff" stroke-miterlimit="10" stroke-width="0.05"/>
   <path d="m593.67,517.87c0.28,-0.09 19.91,-0.41 24.37,-1.36c-0.29,0.73 -0.71,-8.2 -0.56,-5.87c-24.6,3.13 -50.68,2.72 -55.68,2.72c-0.12,1.31 0.43,5.95 0.56,6c0.79,0.32 25.68,-1.55 25.83,-1.49c0.13,0.03 0.53,5.56 0,6.95c-8.49,0 -17.63,0.15 -26.13,0.15c-0.08,1.16 -0.21,3.17 -0.21,4.72c0.33,0.2 0.4,0.68 0.64,0.79c1.19,0.48 3.25,0 4.51,0c4.21,0 11.09,-0.56 14.93,-0.19c-0.16,0.19 -2.11,1.31 -2.27,1.49c-0.49,0.57 -9.95,5.15 -14.39,6.01c-1.05,0.21 -1.57,0.08 -2.57,0.27c-0.05,0.51 -0.53,0.45 -0.43,1.31c0.07,0 0.13,0 0.21,0c0.52,1.23 1.25,4.33 2.36,4.72c1.36,0.45 21.89,-10.93 22.97,-10.48c0.12,0.05 0.16,0.47 0.44,0.53c0,0.44 0.49,4.15 0.49,4.59m-1.12,0.68c0,1.17 0.17,4.39 0.17,5.53c-0.28,0.05 -0.31,0.47 -0.44,0.52c-1.72,0.72 -1.87,-1.63 -3.43,0.52c-0.97,1.32 -1.49,3 -2.37,4.45c-0.12,0.2 -0.85,1.31 -0.85,1.31c-0.93,0.44 -2.63,0 -3.64,0c-3.79,0 -7.6,0 -11.39,0c-1.13,0 -3,-0.45 -4.08,0c-0.13,0.05 -0.15,0.44 -0.41,0.53c0,1.67 0,3.31 0,4.96c0.33,0.2 0.36,0.68 0.64,0.79c0.97,0.4 2.6,0 3.64,0c3.64,0 8.21,0.05 11.16,0c-0.37,0.73 -0.49,1.21 -0.85,1.83c-0.85,1.45 -1.88,2.56 -2.8,3.93c0.12,0.19 -0.07,0.59 0,0.79c0,0 3.96,3.36 4.09,3.4c0.37,0.12 0.71,-0.11 1.07,0c0.53,-0.83 0.64,-1.59 1.93,-1.57c0,0 1.28,0.52 1.29,0.53c1.97,0.33 4.96,1.05 6.81,1.4c-0.09,0.12 -1.88,0.73 -1.88,0.95c-1.24,0.45 -4.92,1.13 -5.59,1.32c0,0 -4.55,0.2 -6.43,0.52c0,0 -8.45,0.75 -11.17,0.25c-0.08,0.55 -0.55,0.61 -0.43,1.57c0.08,0.72 2.25,5.43 2.36,5.49c0.69,0.39 3.64,0.44 4.72,0.27c0.35,-0.07 3.19,-0.44 4.29,-0.52c0.69,-0.05 3.87,-0.43 4.72,-0.53c0.2,-0.01 2.11,-0.39 2.79,-0.52c0.24,-0.05 2.64,-0.6 3.45,-0.77c0.24,-0.07 3.11,-0.91 4.29,-1.32c1.44,-0.52 3.19,-1.31 4.71,-2.09c0.76,-0.39 1.77,-1.57 2.8,-1.57c0.91,0 4.93,1.79 6.23,2.36c0.85,0.37 8.15,3.39 9.23,3.92c0.77,-1.33 1.36,-2.73 2.15,-4.19c0.16,-0.31 0.76,-0.73 0.87,-1.04c0.09,-0.36 -0.12,-0.73 0,-1.05c-0.25,-0.16 -1.55,-0.85 -2.15,-1.04c-0.53,-0.19 -3.28,-1.07 -4.09,-1.31c-1.55,-0.48 -3.85,-1.55 -5.57,-2.09c0.27,-2.23 -0.45,-0.57 0.87,-2.09c0.43,-0.52 4.91,-6.89 5.36,-7.07c1.51,-0.6 3.99,0 5.59,0c-0.13,-0.04 0.43,-0.31 0.64,-0.27c1.13,0.19 2.41,0.07 3.85,0c0.16,-0.4 0.56,-0.48 0.65,-0.79c0.37,-1.37 -0.16,-3.97 -0.21,-4.97c-10.4,0 -21.56,0.23 -31.56,-0.25c0.99,-2.16 2.59,-2.92 4.51,-3.93c0,-2.05 -0.11,-6.01 -0.05,-8.15m0.72,-6.84c0.49,0.16 0.27,-0.32 0.64,-0.27c0.37,0.05 1.01,1.09 1.28,1.31c1.57,1.27 3.31,2.68 4.95,3.68c2.53,1.52 4.84,2.41 7.73,3.65c0.21,0.09 9.69,3.89 10.73,2.09c0.32,-0.59 1.44,-5.03 1.23,-5.11c-0.44,-0.19 -0.97,-0.33 -1.45,-0.39c-0.76,-0.11 -8.12,-2 -8.36,-2.09c-3.39,-1.28 -6.01,-2.43 -8.8,-4.19c0,-0.03 -1.83,-0.95 -1.85,-0.97c4.63,-0.44 19.21,-0.33 19.45,-0.4c0,-1.59 0,-3.59 0,-5.17c-8.52,0 -17.08,0.24 -25.6,0.24m5.84,36.21c-0.93,0.99 -2.28,2.87 -3.65,3.15c-1.41,0.28 -9.72,-1.99 -12.67,-2.63c0.16,-1 1.65,-3.57 1.93,-3.67c1.12,-0.37 12.91,-0.11 16.75,0.27c-0.68,1.17 -1.49,1.96 -2.36,2.88" fill="#3b4a73" fill-rule="nonzero" id="path144"/>
   <path d="m593.67,517.87c0.28,-0.09 19.91,-0.41 24.37,-1.36c-0.29,0.73 -0.71,-8.2 -0.56,-5.87c-24.6,3.13 -50.68,2.72 -55.68,2.72c-0.12,1.31 0.43,5.95 0.56,6c0.79,0.32 25.68,-1.55 25.83,-1.49c0.13,0.03 0.53,5.56 0,6.95c-8.49,0 -17.63,0.15 -26.13,0.15c-0.08,1.16 -0.21,3.17 -0.21,4.72c0.33,0.2 0.4,0.68 0.64,0.79c1.19,0.48 3.25,0 4.51,0c4.21,0 11.09,-0.56 14.93,-0.19c-0.16,0.19 -2.11,1.31 -2.27,1.49c-0.49,0.57 -9.95,5.15 -14.39,6.01c-1.05,0.21 -1.57,0.08 -2.57,0.27c-0.05,0.51 -0.53,0.45 -0.43,1.31c0.07,0 0.13,0 0.21,0c0.52,1.23 1.25,4.33 2.36,4.72c1.36,0.45 21.89,-10.93 22.97,-10.48c0.12,0.05 0.16,0.47 0.44,0.53c0,0.44 0.49,4.15 0.49,4.59m-1.12,0.68c0,1.17 0.17,4.39 0.17,5.53c-0.28,0.05 -0.31,0.47 -0.44,0.52c-1.72,0.72 -1.87,-1.63 -3.43,0.52c-0.97,1.32 -1.49,3 -2.37,4.45c-0.12,0.2 -0.85,1.31 -0.85,1.31c-0.93,0.44 -2.63,0 -3.64,0c-3.79,0 -7.6,0 -11.39,0c-1.13,0 -3,-0.45 -4.08,0c-0.13,0.05 -0.15,0.44 -0.41,0.53c0,1.67 0,3.31 0,4.96c0.33,0.2 0.36,0.68 0.64,0.79c0.97,0.4 2.6,0 3.64,0c3.64,0 8.21,0.05 11.16,0c-0.37,0.73 -0.49,1.21 -0.85,1.83c-0.85,1.45 -1.88,2.56 -2.8,3.93c0.12,0.19 -0.07,0.59 0,0.79c0,0 3.96,3.36 4.09,3.4c0.37,0.12 0.71,-0.11 1.07,0c0.53,-0.83 0.64,-1.59 1.93,-1.57c0,0 1.28,0.52 1.29,0.53c1.97,0.33 4.96,1.05 6.81,1.4c-0.09,0.12 -1.88,0.73 -1.88,0.95c-1.24,0.45 -4.92,1.13 -5.59,1.32c0,0 -4.55,0.2 -6.43,0.52c0,0 -8.45,0.75 -11.17,0.25c-0.08,0.55 -0.55,0.61 -0.43,1.57c0.08,0.72 2.25,5.43 2.36,5.49c0.69,0.39 3.64,0.44 4.72,0.27c0.35,-0.07 3.19,-0.44 4.29,-0.52c0.69,-0.05 3.87,-0.43 4.72,-0.53c0.2,-0.01 2.11,-0.39 2.79,-0.52c0.24,-0.05 2.64,-0.6 3.45,-0.77c0.24,-0.07 3.11,-0.91 4.29,-1.32c1.44,-0.52 3.19,-1.31 4.71,-2.09c0.76,-0.39 1.77,-1.57 2.8,-1.57c0.91,0 4.93,1.79 6.23,2.36c0.85,0.37 8.15,3.39 9.23,3.92c0.77,-1.33 1.36,-2.73 2.15,-4.19c0.16,-0.31 0.76,-0.73 0.87,-1.04c0.09,-0.36 -0.12,-0.73 0,-1.05c-0.25,-0.16 -1.55,-0.85 -2.15,-1.04c-0.53,-0.19 -3.28,-1.07 -4.09,-1.31c-1.55,-0.48 -3.85,-1.55 -5.57,-2.09c0.27,-2.23 -0.45,-0.57 0.87,-2.09c0.43,-0.52 4.91,-6.89 5.36,-7.07c1.51,-0.6 3.99,0 5.59,0c-0.13,-0.04 0.43,-0.31 0.64,-0.27c1.13,0.19 2.41,0.07 3.85,0c0.16,-0.4 0.56,-0.48 0.65,-0.79c0.37,-1.37 -0.16,-3.97 -0.21,-4.97c-10.4,0 -21.56,0.23 -31.56,-0.25c0.99,-2.16 2.59,-2.92 4.51,-3.93c0,-2.05 -0.11,-6.01 -0.05,-8.15m0.72,-6.84c0.49,0.16 0.27,-0.32 0.64,-0.27c0.37,0.05 1.01,1.09 1.28,1.31c1.57,1.27 3.31,2.68 4.95,3.68c2.53,1.52 4.84,2.41 7.73,3.65c0.21,0.09 9.69,3.89 10.73,2.09c0.32,-0.59 1.44,-5.03 1.23,-5.11c-0.44,-0.19 -0.97,-0.33 -1.45,-0.39c-0.76,-0.11 -8.12,-2 -8.36,-2.09c-3.39,-1.28 -6.01,-2.43 -8.8,-4.19c0,-0.03 -1.83,-0.95 -1.85,-0.97c4.63,-0.44 19.21,-0.33 19.45,-0.4c0,-1.59 0,-3.59 0,-5.17c-8.52,0 -17.08,0.24 -25.6,0.24m5.84,36.21c-0.93,0.99 -2.28,2.87 -3.65,3.15c-1.41,0.28 -9.72,-1.99 -12.67,-2.63c0.16,-1 1.65,-3.57 1.93,-3.67c1.12,-0.37 12.91,-0.11 16.75,0.27c-0.68,1.17 -1.49,1.96 -2.36,2.88" fill="none" id="path146" stroke="#ffffff" stroke-miterlimit="10" stroke-width="0.04"/>
   <path d="m594,539.2l-0.33,-21.67l-5.48,9.4l0.33,12.27l5.48,0z" fill="#3b4a73" fill-rule="nonzero" id="path148"/>
   <path d="m333.91,534.48c38.19,-7.49 258.59,-79.52 153.95,-307.16l-0.45,-0.45c0,0 -7.89,-38.05 -42.68,-68.65c-34.77,-30.59 44.25,29.79 -24.93,158.57l67.61,-89.92c3.64,11.05 5.09,58.11 -12.2,94.21c-29.79,62.19 -134.81,130.47 -141.23,213.01l-0.07,0.39z" fill="#ffffff" fill-rule="nonzero" id="path150"/>
   <path d="m333.91,534.48c38.19,-7.49 258.59,-79.52 153.95,-307.16l-0.45,-0.45c0,0 -7.89,-38.05 -42.68,-68.65c-34.77,-30.59 44.25,29.79 -24.93,158.57l67.61,-89.92c3.64,11.05 5.09,58.11 -12.2,94.21c-1.85,3.88 -4.01,7.8 -6.43,11.73c-36.11,59.04 -128.79,123.89 -134.8,201.28l-0.07,0.39z" fill="none" id="path152" stroke="#3b4a73" stroke-miterlimit="10" stroke-width="4"/>
   <path d="m383.47,435.93c0,0 67.71,-22.16 78.48,29.36" fill="none" id="path154" stroke="#3b4a73" stroke-miterlimit="10" stroke-width="4"/>
   <path d="m334.97,533.03c0,0 53.25,-27.68 46.61,-33.81c-6.64,-6.13 -17.36,5.48 -17.36,5.48l-29.25,28.33z" fill="#3b4a73" fill-rule="nonzero" id="path156"/>
   <path d="m417.64,482.83c-8.72,0.35 -15.52,7.71 -15.17,16.43c0.35,8.73 7.69,15.52 16.43,15.17c8.72,-0.33 15.52,-7.69 15.17,-16.43c-0.35,-8.72 -7.71,-15.52 -16.43,-15.17" fill="#ffffff" fill-rule="nonzero" id="path158"/>
   <path d="m417.64,482.83c-8.72,0.35 -15.52,7.71 -15.17,16.43c0.35,8.73 7.69,15.52 16.43,15.17c8.72,-0.33 15.52,-7.69 15.17,-16.43c-0.35,-8.72 -7.71,-15.52 -16.43,-15.17" fill="none" id="path160" stroke="#3b4a73" stroke-miterlimit="10" stroke-width="0.5"/>
   <path d="m417.96,490.73c-4.37,0.17 -7.77,3.85 -7.6,8.21c0.17,4.36 3.85,7.76 8.21,7.57c4.36,-0.17 7.77,-3.84 7.6,-8.2c-0.17,-4.37 -3.85,-7.76 -8.21,-7.59" fill="#3b4a73" fill-rule="nonzero" id="path162"/>
   <path d="m417.96,490.73c-4.37,0.17 -7.77,3.85 -7.6,8.21c0.17,4.36 3.85,7.76 8.21,7.57c4.36,-0.17 7.77,-3.84 7.6,-8.2c-0.17,-4.37 -3.85,-7.76 -8.21,-7.59" fill="none" id="path164" stroke="#3b4a73" stroke-miterlimit="10"/>
   <path d="m515.28,344.35l-44.95,45.47l10.79,51.52c35.33,-39.53 34.16,-96.99 34.16,-96.99" fill="#b3def0" fill-rule="nonzero" id="path166"/>
   <path d="m515.28,344.35l-44.95,45.47l10.79,51.52c35.33,-39.53 34.16,-96.99 34.16,-96.99" fill="none" id="path168" stroke="#3b4a73" stroke-miterlimit="10" stroke-width="0.5"/>
   <path d="m387.61,160.2c-38.2,7.49 -258.59,79.53 -153.96,307.16l0.45,0.45c0,0 7.91,38.05 42.68,68.65c34.79,30.6 -44.25,-29.77 24.93,-158.57l-67.61,89.92c-3.64,-11.05 -5.09,-58.12 12.21,-94.21c29.79,-62.19 134.8,-130.47 141.21,-213.01l0.08,-0.39l0.01,0z" fill="#ffffff" fill-rule="nonzero" id="path170"/>
   <path d="m387.61,160.2c-38.2,7.49 -258.59,79.53 -153.96,307.16l0.45,0.45c0,0 7.91,38.05 42.68,68.65c34.79,30.6 -44.25,-29.77 24.93,-158.57l-67.61,89.92c-3.64,-11.05 -5.09,-58.12 12.21,-94.21c29.79,-62.19 134.8,-130.47 141.21,-213.01l0.08,-0.39l0.01,0z" fill="none" id="path172" stroke="#3b4a73" stroke-miterlimit="10" stroke-width="4"/>
   <path d="m338.04,258.75c0,0 -67.69,22.16 -78.48,-29.35" fill="none" id="path174" stroke="#3b4a73" stroke-miterlimit="10" stroke-width="4"/>
   <path d="m386.55,161.65c0,0 -53.27,27.68 -46.63,33.83c6.64,6.13 17.37,-5.49 17.37,-5.49l29.25,-28.33l0.01,-0.01z" fill="#3b4a73" fill-rule="nonzero" id="path176"/>
   <path d="m303.87,211.85c8.73,-0.35 15.53,-7.69 15.19,-16.43c-0.35,-8.72 -7.71,-15.52 -16.43,-15.17c-8.73,0.35 -15.52,7.69 -15.17,16.43c0.35,8.72 7.69,15.52 16.41,15.17" fill="#ffffff" fill-rule="nonzero" id="path178"/>
   <path d="m303.87,211.85c8.73,-0.35 15.53,-7.69 15.19,-16.43c-0.35,-8.72 -7.71,-15.52 -16.43,-15.17c-8.73,0.35 -15.52,7.69 -15.17,16.43c0.35,8.72 7.69,15.52 16.41,15.17" fill="none" id="path180" stroke="#3b4a73" stroke-miterlimit="10" stroke-width="0.25"/>
   <path d="m303.56,203.96c4.36,-0.17 7.76,-3.85 7.59,-8.21c-0.17,-4.36 -3.84,-7.77 -8.2,-7.6c-4.37,0.17 -7.77,3.85 -7.6,8.21c0.17,4.36 3.85,7.77 8.21,7.6" fill="#3b4a73" fill-rule="nonzero" id="path182"/>
   <path d="m303.56,203.96c4.36,-0.17 7.76,-3.85 7.59,-8.21c-0.17,-4.36 -3.84,-7.77 -8.2,-7.6c-4.37,0.17 -7.77,3.85 -7.6,8.21c0.17,4.36 3.85,7.77 8.21,7.6" fill="none" id="path184" stroke="#3b4a73" stroke-miterlimit="10" stroke-width="0.13"/>
   <path d="m206.23,350.33l44.95,-45.47l-10.79,-51.51c-35.33,39.53 -34.16,96.97 -34.16,96.97" fill="#b3def0" fill-rule="nonzero" id="path186"/>
  </g>
 </g>
</svg>